<svg width="79" height="76" viewBox="0 0 79 76" fill="none" xmlns="http://www.w3.org/2000/svg">
<circle cx="35.4062" cy="35.1619" r="34.909" fill="#A4D060"/>
<path d="M68.1667 38.0834H62.75L49.7771 28.6042C50.431 28.146 50.9663 27.5384 51.3384 26.8319C51.7105 26.1253 51.9087 25.3402 51.9167 24.5417C51.9034 23.5977 51.6473 22.6729 51.173 21.8565C50.6986 21.0401 50.022 20.3597 49.2083 19.8807V16.4167H46.5V21.8334C47.0356 21.8334 47.5593 21.9923 48.0047 22.2899C48.45 22.5874 48.7972 23.0104 49.0022 23.5053C49.2071 24.0002 49.2608 24.5448 49.1563 25.0701C49.0518 25.5955 48.7938 26.0781 48.4151 26.4568C48.0363 26.8356 47.5537 27.0935 47.0284 27.198C46.503 27.3025 45.9584 27.2489 45.4636 27.0439C44.9687 26.8389 44.5457 26.4918 44.2481 26.0464C43.9505 25.601 43.7917 25.0774 43.7917 24.5417H41.0833C41.0913 25.342 41.2912 26.1287 41.6664 26.8356C42.0415 27.5425 42.5809 28.1491 43.2392 28.6042L30.25 38.0834H24.8333C23.3972 38.0848 22.0203 38.656 21.0047 39.6715C19.9892 40.687 19.4181 42.0639 19.4167 43.5001V65.1667C19.4181 66.6029 19.9892 67.9798 21.0047 68.9953C22.0203 70.0108 23.3972 70.582 24.8333 70.5834H68.1667C68.8783 70.5845 69.5831 70.4451 70.2408 70.1733C70.8985 69.9014 71.496 69.5025 71.9992 68.9993C72.5024 68.4961 72.9013 67.8985 73.1732 67.2409C73.445 66.5832 73.5844 65.8784 73.5833 65.1667V43.5001C73.5819 42.0639 73.0107 40.687 71.9952 39.6715C70.9797 38.656 69.6028 38.0848 68.1667 38.0834ZM46.5 29.9584C46.5162 29.9584 57.3333 38.0834 57.3333 38.0834H35.6667L46.5 29.9584ZM68.1667 65.1667H24.8333V43.5001H68.1667V65.1667Z" fill="#676C73"/>
<path d="M51.9167 62.4583C52.635 62.4583 53.3238 62.1729 53.8318 61.665C54.3397 61.1571 54.625 60.4682 54.625 59.7499V48.9166C54.625 48.1983 54.3397 47.5094 53.8318 47.0015C53.3238 46.4936 52.635 46.2083 51.9167 46.2083C51.1984 46.2083 50.5095 46.4936 50.0016 47.0015C49.4937 47.5094 49.2083 48.1983 49.2083 48.9166V59.7499C49.2083 60.4682 49.4937 61.1571 50.0016 61.665C50.5095 62.1729 51.1984 62.4583 51.9167 62.4583ZM62.75 62.4583C63.4683 62.4583 64.1572 62.1729 64.6651 61.665C65.173 61.1571 65.4583 60.4682 65.4583 59.7499V48.9166C65.4583 48.1983 65.173 47.5094 64.6651 47.0015C64.1572 46.4936 63.4683 46.2083 62.75 46.2083C62.0317 46.2083 61.3428 46.4936 60.8349 47.0015C60.327 47.5094 60.0417 48.1983 60.0417 48.9166V59.7499C60.0417 60.4682 60.327 61.1571 60.8349 61.665C61.3428 62.1729 62.0317 62.4583 62.75 62.4583ZM30.25 62.4583C30.9683 62.4583 31.6572 62.1729 32.1651 61.665C32.673 61.1571 32.9583 60.4682 32.9583 59.7499V48.9166C32.9583 48.1983 32.673 47.5094 32.1651 47.0015C31.6572 46.4936 30.9683 46.2083 30.25 46.2083C29.5317 46.2083 28.8428 46.4936 28.3349 47.0015C27.827 47.5094 27.5417 48.1983 27.5417 48.9166V59.7499C27.5417 60.4682 27.827 61.1571 28.3349 61.665C28.8428 62.1729 29.5317 62.4583 30.25 62.4583ZM41.0833 62.4583C41.8016 62.4583 42.4905 62.1729 42.9984 61.665C43.5063 61.1571 43.7917 60.4682 43.7917 59.7499V48.9166C43.7917 48.1983 43.5063 47.5094 42.9984 47.0015C42.4905 46.4936 41.8016 46.2083 41.0833 46.2083C40.365 46.2083 39.6762 46.4936 39.1683 47.0015C38.6603 47.5094 38.375 48.1983 38.375 48.9166V59.7499C38.375 60.4682 38.6603 61.1571 39.1683 61.665C39.6762 62.1729 40.365 62.4583 41.0833 62.4583Z" fill="#676C73"/>
</svg>
