<svg width="74" height="71" viewBox="0 0 74 71" fill="none" xmlns="http://www.w3.org/2000/svg">
<circle cx="35.4062" cy="35.1622" r="34.909" fill="#A4D060"/>
<path d="M45.1394 14.625C44.9661 14.4512 44.7601 14.3133 44.5334 14.2192C44.3066 14.1251 44.0635 14.0767 43.8181 14.0767C43.5726 14.0767 43.3295 14.1251 43.1027 14.2192C42.876 14.3133 42.67 14.4512 42.4967 14.625L20.1002 37.0214C19.927 37.1951 19.7897 37.4011 19.6962 37.6279C19.6027 37.8546 19.5548 38.0976 19.5552 38.3428V64.472C19.5552 64.967 19.7519 65.4417 20.1019 65.7917C20.4519 66.1417 20.9266 66.3384 21.4216 66.3384H38.2189C38.7139 66.3384 39.1887 66.1417 39.5387 65.7917C39.8887 65.4417 40.0853 64.967 40.0853 64.472V49.541H47.5508V64.472C47.5508 64.967 47.7474 65.4417 48.0974 65.7917C48.4475 66.1417 48.9222 66.3384 49.4172 66.3384H66.2145C66.7095 66.3384 67.1842 66.1417 67.5342 65.7917C67.8842 65.4417 68.0809 64.967 68.0809 64.472V38.3428C68.0813 38.0976 68.0334 37.8546 67.9399 37.6279C67.8464 37.4011 67.7091 37.1951 67.5359 37.0214L62.4818 31.971V19.6791C62.4818 19.1841 62.2851 18.7094 61.9351 18.3594C61.5851 18.0094 61.1104 17.8127 60.6154 17.8127H56.8827C56.3877 17.8127 55.9129 18.0094 55.5629 18.3594C55.2129 18.7094 55.0163 19.1841 55.0163 19.6791V24.5055L45.1394 14.625ZM23.288 62.6056V39.1155L43.8181 18.5854L64.3481 39.1155V62.6056H51.2835V47.6747C51.2835 47.1797 51.0869 46.705 50.7369 46.3549C50.3869 46.0049 49.9122 45.8083 49.4172 45.8083H38.2189C37.724 45.8083 37.2492 46.0049 36.8992 46.3549C36.5492 46.705 36.3526 47.1797 36.3526 47.6747V62.6056H23.288Z" fill="#676C73"/>
</svg>
