<svg width="81" height="81" viewBox="0 0 81 81" fill="none" xmlns="http://www.w3.org/2000/svg">
<circle cx="35.162" cy="35.1619" r="34.909" fill="#A4D060"/>
<g clip-path="url(#clip0_437_17)">
<path d="M47.8238 46.2713L52.5488 38.1037C52.8525 37.5975 52.7175 36.9563 52.2788 36.585L47.2838 32.67C47.385 31.9275 47.4525 31.1513 47.4525 30.375C47.4525 29.5987 47.385 28.8225 47.2838 28.0463L52.2788 24.1313C52.7175 23.76 52.8525 23.1187 52.5488 22.6125L47.8238 14.445C47.52 13.9388 46.9125 13.7363 46.3725 13.9388L40.5 16.3012C39.285 15.3562 37.9688 14.58 36.5175 13.9725L35.64 7.72875C35.5388 7.18875 35.0325 6.75 34.4588 6.75H25.0088C24.435 6.75 23.9288 7.18875 23.8275 7.7625L22.95 14.0063C21.5325 14.6138 20.1825 15.39 18.9675 16.335L13.095 13.9725C12.555 13.77 11.9475 13.9725 11.6438 14.4787L6.91876 22.6463C6.61501 23.1525 6.75001 23.7937 7.18876 24.165L12.1838 28.08C12.0825 28.8225 12.015 29.5987 12.015 30.375C12.015 31.1513 12.0825 31.9275 12.1838 32.7037L7.18876 36.6188C6.75001 36.99 6.61501 37.6313 6.91876 38.1375L11.6438 46.305C11.9475 46.8113 12.555 47.0137 13.095 46.8112L18.9675 44.4488C20.1825 45.3938 21.4988 46.17 22.95 46.7775L23.8275 53.0213C23.9288 53.5613 24.435 54 25.0088 54H34.4588C35.0325 54 35.5388 53.5612 35.64 52.9875L36.5175 46.7438C37.935 46.1363 39.285 45.36 40.5 44.415L46.3725 46.7775C46.9125 46.98 47.52 46.7775 47.8238 46.2713ZM29.7338 37.125C26.0213 37.125 22.9838 34.0875 22.9838 30.375C22.9838 26.6625 26.0213 23.625 29.7338 23.625C33.4463 23.625 36.4838 26.6625 36.4838 30.375C36.4838 34.0875 33.4463 37.125 29.7338 37.125Z" fill="#676C73"/>
<path d="M73.98 63.0113L70.74 60.5138C70.8075 60.0413 70.875 59.535 70.875 59.0287C70.875 58.5225 70.8412 58.0162 70.74 57.5437L73.9462 55.0462C74.2162 54.81 74.3175 54.405 74.115 54.0675L71.0775 48.8363C70.9087 48.4988 70.5037 48.3975 70.1325 48.4987L66.3862 50.0175C65.61 49.41 64.7662 48.9038 63.8212 48.5325L63.2475 44.55C63.2137 44.145 62.8762 43.875 62.5387 43.875H56.4975C56.1262 43.875 55.7887 44.145 55.755 44.5162L55.1812 48.4987C54.27 48.9037 53.3925 49.3763 52.6162 49.9838L48.87 48.465C48.5325 48.33 48.1275 48.465 47.925 48.8025L44.8875 54.0338C44.7187 54.3713 44.7525 54.7762 45.0562 55.0125L48.2625 57.51C48.195 57.9825 48.1612 58.4887 48.1612 58.995C48.1612 59.5012 48.195 60.0075 48.2625 60.48L45.0562 62.9775C44.7862 63.2137 44.685 63.6188 44.8875 63.9563L47.925 69.1875C48.0937 69.525 48.4987 69.6263 48.87 69.525L52.6162 68.0062C53.3925 68.6137 54.2362 69.12 55.1812 69.4913L55.755 73.4738C55.8225 73.845 56.1262 74.115 56.4975 74.115H62.5387C62.91 74.115 63.2475 73.845 63.2812 73.4738L63.855 69.4913C64.7662 69.0863 65.6437 68.6137 66.3862 68.0062L70.1662 69.525C70.5037 69.66 70.9087 69.525 71.1112 69.1875L74.1487 63.9563C74.3512 63.6525 74.25 63.2475 73.98 63.0113ZM59.5012 63.5512C57.0037 63.5512 54.945 61.5262 54.945 58.995C54.945 56.4637 56.97 54.4387 59.5012 54.4387C62.0325 54.4387 64.0575 56.4637 64.0575 58.995C64.0575 61.5262 61.9987 63.5512 59.5012 63.5512Z" fill="#676C73"/>
</g>
<defs>
<clipPath id="clip0_437_17">
<rect width="81" height="81" fill="white"/>
</clipPath>
</defs>
</svg>
