<svg width="38" height="30" viewBox="0 0 38 30" fill="none" xmlns="http://www.w3.org/2000/svg">
<g clip-path="url(#clip0_2_54)">
<path d="M28.975 11.25H19.95V14.5312C19.95 16.8574 18.0322 18.75 15.675 18.75C13.3179 18.75 11.4 16.8574 11.4 14.5312V7.4062L7.5466 9.69136C6.40067 10.3652 5.70004 11.5898 5.70004 12.9023V15.6738L0.950042 18.3808C0.0416045 18.8964 -0.273083 20.0449 0.255354 20.9414L5.00535 29.0625C5.52785 29.9589 6.6916 30.2636 7.60004 29.748L13.7394 26.25H21.85C23.946 26.25 25.65 24.5683 25.65 22.5H26.6C27.651 22.5 28.5 21.6621 28.5 20.625V16.875H28.975C29.7647 16.875 30.4 16.248 30.4 15.4687V12.6562C30.4 11.8769 29.7647 11.25 28.975 11.25ZM37.7447 9.05855L32.9947 0.937453C32.4722 0.0409688 31.3085 -0.263719 30.4 0.251906L24.2607 3.74995H18.1925C17.48 3.74995 16.7854 3.94917 16.1797 4.31831L14.1907 5.54292C13.6325 5.88277 13.3 6.48628 13.3 7.13081V14.5312C13.3 15.8261 14.3629 16.875 15.675 16.875C16.9872 16.875 18.05 15.8261 18.05 14.5312V9.37495H28.975C30.8097 9.37495 32.3 10.8457 32.3 12.6562V14.3261L37.05 11.6191C37.9585 11.0976 38.2672 9.95503 37.7447 9.05855Z" fill="#609809"/>
</g>
<defs>
<clipPath id="clip0_2_54">
<rect width="38" height="30" fill="white"/>
</clipPath>
</defs>
</svg>
