<svg width="41" height="41" viewBox="0 0 41 41" fill="none" xmlns="http://www.w3.org/2000/svg">
<g clip-path="url(#clip0_2_51)">
<path d="M20.2153 2.27783C15.9866 2.27783 11.931 3.95769 8.94086 6.94785C5.9507 9.93802 4.27084 13.9935 4.27084 18.2223C4.27084 18.7348 4.27084 19.2359 4.35057 19.737C4.64405 22.8123 5.82459 25.7361 7.74869 28.153C9.67279 30.5699 12.2576 32.3758 15.1888 33.3512C18.1201 34.3265 21.2715 34.4294 24.2601 33.6471C27.2487 32.8649 29.9457 31.2313 32.0233 28.945C34.1008 26.6586 35.4694 23.818 35.9627 20.7684C36.4561 17.7188 36.0528 14.5915 34.802 11.7668C33.5513 8.94202 31.5068 6.54147 28.9173 4.85691C26.3277 3.17236 23.3046 2.27636 20.2153 2.27783ZM20.2153 4.55561C23.8164 4.55874 27.2707 5.98304 29.8275 8.51895V9.65783C25.3261 8.10874 20.433 8.12881 15.9445 9.71478C15.5859 9.36536 15.1358 9.12451 14.6461 9.02006H14.3614C14.2247 8.54172 14.0995 8.06339 13.997 7.57367C13.8945 7.08395 13.8375 6.65117 13.7806 6.18422C15.7577 5.11727 17.9687 4.55768 20.2153 4.55561ZM16.7986 11.2409C20.9347 9.85585 25.4173 9.90802 29.52 11.3889C28.9651 14.2824 27.7533 17.0099 25.9781 19.3612C25.4815 19.1509 24.9318 19.1004 24.4053 19.2167C23.8787 19.3331 23.4015 19.6104 23.0397 20.0103C22.6411 19.7826 22.2425 19.5548 21.9008 19.2928C19.6018 17.7589 17.6818 15.722 16.2861 13.3364C16.5117 13.0567 16.6759 12.7327 16.7681 12.3855C16.8603 12.0382 16.8785 11.6754 16.8214 11.3206L16.7986 11.2409ZM12.2431 7.14089C12.2431 7.38006 12.3114 7.63061 12.357 7.86978C12.4595 8.37089 12.5961 8.86061 12.7328 9.35033C12.2967 9.60859 11.9457 9.98883 11.7231 10.4442C11.5004 10.8995 11.416 11.4101 11.48 11.9128C9.68228 13.0868 8.07652 14.5312 6.71945 16.1951C6.99176 14.3931 7.62172 12.6637 8.57228 11.1088C9.52283 9.55389 10.7748 8.20479 12.2545 7.14089H12.2431ZM12.2431 25.0328C11.7985 25.1821 11.4011 25.446 11.0912 25.7979C10.7812 26.1499 10.5696 26.5774 10.4778 27.0373H9.7489C7.90968 24.8436 6.80966 22.1255 6.60557 19.2701L6.73084 19.0537C8.15698 16.8423 10.0214 14.9469 12.2089 13.4845C12.5369 13.827 12.9513 14.0745 13.4084 14.2008C13.8655 14.3271 14.3483 14.3275 14.8056 14.202C16.3289 16.7763 18.4112 18.9753 20.8986 20.6367C21.3656 20.9442 21.8439 21.2289 22.3222 21.5023C22.284 21.9379 22.3544 22.3762 22.5272 22.7778C20.443 24.4329 18.0389 25.6388 15.4661 26.3198C15.1678 25.7623 14.6809 25.3291 14.0926 25.0975C13.5042 24.866 12.8527 24.8511 12.2545 25.0556L12.2431 25.0328ZM20.2153 31.8662C17.899 31.8668 15.6212 31.2748 13.5983 30.1464L13.9172 30.0781C14.3704 29.9294 14.7754 29.6618 15.0899 29.3032C15.4044 28.9446 15.617 28.5082 15.7053 28.0395C18.6174 27.2969 21.3361 25.9375 23.6775 24.0534C24.2337 24.3784 24.8905 24.4861 25.5213 24.3558C26.1521 24.2254 26.7124 23.8661 27.0942 23.3473C28.701 23.765 30.3539 23.9793 32.0142 23.9851H32.6178C31.5191 26.3478 29.7678 28.3472 27.5704 29.7475C25.3729 31.1479 22.821 31.8909 20.2153 31.8889V31.8662ZM27.6295 21.7301C27.6284 21.2527 27.4985 20.7845 27.2536 20.3748C29.149 17.899 30.468 15.0314 31.1145 11.9812C31.6839 12.2469 32.2458 12.543 32.8 12.8695C34.0526 15.8294 34.222 19.136 33.2783 22.2084C31.3875 22.3546 29.4854 22.2047 27.6408 21.7642L27.6295 21.7301Z" fill="#609809"/>
</g>
<defs>
<clipPath id="clip0_2_51">
<rect width="41" height="41" fill="white"/>
</clipPath>
</defs>
</svg>
