<svg width="76" height="73" viewBox="0 0 76 73" fill="none" xmlns="http://www.w3.org/2000/svg">
<circle cx="35.4062" cy="35.858" r="34.909" fill="#A4D060"/>
<path d="M75.4271 30.7203L68.6584 25.5048C68.1984 25.2096 67.6984 24.9821 67.1735 24.8294C66.6508 24.6602 66.1068 24.5662 65.5576 24.5501H46.075L48.3578 38.8001H65.5576C66.025 38.8001 66.6092 38.6946 67.1707 38.5208C67.7322 38.3469 68.2737 38.1075 68.6555 37.8482L75.4243 32.627C75.809 32.3676 76 32.0228 76 31.6751C76 31.3274 75.809 30.9825 75.4271 30.7203ZM43.225 18.8501H40.375C39.9971 18.8501 39.6346 19.0002 39.3674 19.2675C39.1001 19.5347 38.95 19.8972 38.95 20.2751V30.2501H29.4424C28.9693 30.2501 28.3879 30.3555 27.8264 30.5322C27.2621 30.7032 26.7235 30.9398 26.3416 31.2048L19.5728 36.4203C19.1881 36.6797 19 37.0274 19 37.3751C19 37.7199 19.1881 38.0648 19.5728 38.3298L26.3416 43.551C26.7235 43.8104 27.2621 44.0498 27.8264 44.2208C28.3879 44.3946 28.9693 44.5001 29.4424 44.5001H38.95V68.7251C38.95 69.103 39.1001 69.4655 39.3674 69.7327C39.6346 70 39.9971 70.1501 40.375 70.1501H43.225C43.6029 70.1501 43.9654 70 44.2326 69.7327C44.4999 69.4655 44.65 69.103 44.65 68.7251V20.2751C44.65 19.8972 44.4999 19.5347 44.2326 19.2675C43.9654 19.0002 43.6029 18.8501 43.225 18.8501Z" fill="#676C73"/>
</svg>
