<svg width="36" height="34" viewBox="0 0 36 34" fill="none" xmlns="http://www.w3.org/2000/svg">
<path d="M27.131 6.52356C26.8997 6.73736 26.6791 6.94861 26.4471 7.14713C26.4194 7.17077 26.3151 7.14531 26.2754 7.11004C25.7892 6.67955 25.3286 6.21778 24.8217 5.81382C23.8381 5.03027 22.7713 4.3718 21.5988 3.90494C20.9161 3.63297 20.2254 3.36863 19.5182 3.17374C18.3931 2.86359 17.2399 2.7047 16.0678 2.69634C15.094 2.68943 14.1294 2.74724 13.1673 2.91595C11.5922 3.19265 10.1071 3.71623 8.70667 4.47687C7.2497 5.26806 5.96705 6.2865 4.85325 7.51255C3.92108 8.53862 3.15083 9.67631 2.53996 10.9184C2.05126 11.9113 1.68656 12.9516 1.43309 14.0282C1.08772 15.4953 0.998371 16.9864 1.10851 18.4841C1.15702 19.1447 1.28539 19.8014 1.41085 20.4537C1.67562 21.8314 2.18839 23.1229 2.85615 24.3525C3.3598 25.2801 3.97214 26.1353 4.65631 26.9395C4.70044 26.9915 4.72196 27.0624 4.75442 27.1246C4.77083 27.1555 4.78068 27.2046 4.80584 27.2144C5.12605 27.3369 5.29527 27.6336 5.52649 27.8525C6.62752 28.8942 7.84489 29.7629 9.2023 30.4417C10.0969 30.8893 11.0273 31.2431 11.9926 31.4958C13.1221 31.7917 14.2724 31.9586 15.4445 31.9677C16.4179 31.975 17.3825 31.9161 18.3442 31.747C19.9194 31.4703 21.4055 30.9489 22.8034 30.185C24.4858 29.2655 25.9333 28.0591 27.1474 26.5738C27.9132 25.6368 28.5522 24.622 29.0693 23.5312C29.5095 22.6026 29.8487 21.6347 30.0701 20.6326C30.2039 20.0261 30.2677 19.4044 30.375 18.7917C30.3954 18.6761 30.4501 18.5492 30.5292 18.4648C30.8112 18.1627 31.1098 17.8758 31.4038 17.5845C31.4224 17.566 31.4527 17.5591 31.5001 17.5358C31.43 20.425 30.6842 23.0952 29.1634 25.5353C27.1897 28.7015 24.4391 30.9366 20.9077 32.1539C17.0269 33.4916 13.1666 33.3381 9.40726 31.683C5.84487 30.1148 3.19532 27.5537 1.5374 24.0424C-2.14279 16.2465 1.14352 7.78961 7.57975 3.92457C14.6429 -0.316789 22.7265 1.77971 27.131 6.52356Z" fill="#609809"/>
<path d="M5.72717 9.43552V20.1647L16.0606 30.6046L35.8955 11.0645L36 0L16.1167 19.5981L5.72717 9.43552Z" fill="#609809"/>
</svg>
